<?xml version="1.0" encoding="UTF-8"?>
<svg id="Layer_1" data-name="Layer 1" xmlns="http://www.w3.org/2000/svg" width="512" height="124.43" viewBox="0 0 512 124.43">
  <g>
    <path d="M383.62,67.91c-3.12-1.34-7.3-2.71-12.55-4.14-4.36-1.25-7.84-2.38-10.42-3.41-2.58-1.02-4.74-2.45-6.48-4.27-1.74-1.82-2.6-4.16-2.6-7.01,0-3.29,1.47-6.05,4.41-8.28,2.94-2.22,6.77-3.34,11.49-3.34,5.34,0,9.55,1.31,12.62,3.94,3.07,2.63,4.74,6.08,5.01,10.35h9.35c-.36-6.95-2.94-12.4-7.75-16.36-4.81-3.96-11.13-5.94-18.97-5.94-4.99,0-9.44.89-13.36,2.67-3.92,1.78-6.94,4.19-9.08,7.21-2.14,3.03-3.2,6.32-3.2,9.88,0,4.72,1.18,8.48,3.54,11.29,2.36,2.81,5.23,4.92,8.62,6.34,3.38,1.43,7.79,2.85,13.22,4.27,4.18,1.07,7.5,2.07,9.95,3,2.45.94,4.47,2.2,6.08,3.81,1.6,1.6,2.4,3.65,2.4,6.14,0,3.56-1.45,6.54-4.34,8.95-2.89,2.4-6.88,3.61-11.95,3.61-5.79,0-10.4-1.27-13.82-3.81-3.43-2.54-5.37-5.85-5.81-9.95h-9.62c.62,6.68,3.58,11.95,8.88,15.83,5.3,3.87,12.13,5.81,20.5,5.81,4.99,0,9.39-.89,13.22-2.67,3.83-1.78,6.81-4.21,8.95-7.28s3.21-6.57,3.21-10.49c-.09-4.27-1.25-7.7-3.47-10.28-2.23-2.58-4.9-4.54-8.01-5.88Z" fill="#fff"/>
    <path d="M417.41,3c-1.87,0-3.47.65-4.81,1.94-1.34,1.29-2,2.92-2,4.87s.67,3.61,2,4.94c1.34,1.34,2.94,2,4.81,2s3.47-.67,4.81-2,2-2.98,2-4.94-.67-3.58-2-4.87c-1.34-1.29-2.94-1.94-4.81-1.94Z" fill="#fff"/>
    <rect x="412.74" y="30.51" width="9.35" height="72.93" fill="#fff"/>
    <path d="M489.87,92.16c-4.14,2.98-9.28,4.47-15.43,4.47-4.9,0-9.31-1.11-13.22-3.34-3.92-2.22-7.01-5.56-9.28-10.02-2.27-4.45-3.41-9.88-3.41-16.29s1.14-11.82,3.41-16.23c2.27-4.41,5.36-7.72,9.28-9.95,3.92-2.22,8.33-3.34,13.22-3.34,6.14,0,11.29,1.49,15.43,4.47,4.14,2.98,6.83,7.1,8.08,12.36h10.02c-1.69-7.66-5.46-13.71-11.29-18.17-5.83-4.45-13.25-6.68-22.24-6.68-6.86,0-12.96,1.54-18.3,4.61-5.34,3.07-9.53,7.44-12.56,13.09-3.03,5.66-4.54,12.27-4.54,19.83s1.51,14.18,4.54,19.83c3.03,5.66,7.21,10.02,12.56,13.09s11.44,4.61,18.3,4.61c8.9,0,16.3-2.27,22.17-6.81s9.66-10.55,11.35-18.03h-10.02c-1.25,5.34-3.94,9.51-8.08,12.49Z" fill="#fff"/>
    <path d="M315.71,72.52c0,13.21-10.75,23.96-23.96,23.96s-23.96-10.75-23.96-23.96V30.67h-7.7v41.85c0,17.46,14.2,31.66,31.66,31.66s31.66-14.2,31.66-31.66V30.67h-7.7v41.85Z" fill="#fff"/>
  </g>
  <path d="M242.78,69.83c.13-1.64.2-3.83.2-6.59,0-6.23-1.4-11.91-4.21-17.03-2.8-5.12-6.81-9.19-12.02-12.22-5.21-3.03-11.29-4.54-18.23-4.54s-13.14,1.52-18.57,4.54c-5.43,3.03-9.66,7.39-12.69,13.09-1.31,2.47-2.33,5.12-3.07,7.95h9.42c1.34-4.38,3.58-8.02,6.73-10.88,4.9-4.45,10.82-6.68,17.76-6.68,4.63,0,8.9.98,12.82,2.94,3.92,1.96,7.01,4.85,9.28,8.68,2.27,3.83,3.36,8.46,3.27,13.89h-47.58l-13.03.08s0,.02,0,.03h-5.9s-10.37-49.15-10.37-49.15c-.6-2.87-3.07-4.89-6-4.92h-.06c-2.9,0-5.38,1.97-6.03,4.8l-22.8,98.62c-.15.63-.5.95-1.19.93-.64-.01-1.03-.34-1.15-.97l-15.89-82.05c-.55-2.82-2.93-4.85-5.8-4.93-2.9-.11-5.37,1.8-6.08,4.59l-18.24,71.64-11.97-35.6c-.52-1.56-1.98-2.61-3.63-2.62l-52.2-.32-.05,7.7,49.45.31,11.39,33.85c1.06,3.15,4.03,5.19,7.33,5.06,3.32-.13,6.11-2.37,6.92-5.59l16.69-65.56,14.52,75c.82,4.23,4.26,7.13,8.57,7.2.06,0,.12,0,.18,0,4.23,0,7.7-2.75,8.65-6.89l21.26-91.98,9.61,45.55c.38,1.78,1.95,3.06,3.77,3.06h9.02c.44,5.98,1.91,11.33,4.45,16.02,3.07,5.66,7.32,10.02,12.76,13.09,5.43,3.07,11.57,4.61,18.43,4.61,8.82,0,16.14-2.25,21.97-6.74,5.83-4.5,9.64-10.31,11.42-17.43h-9.88c-1.34,4.99-4.07,8.95-8.21,11.89-4.14,2.94-9.24,4.41-15.29,4.41-4.63,0-8.91-1-12.82-3-3.92-2-7.08-4.96-9.48-8.88-2.38-3.87-3.7-8.53-3.99-13.97l60.56-.07v-.88Z" fill="#fff"/>
</svg>