<?xml version="1.0" encoding="UTF-8"?>
<svg id="Layer_1" data-name="Layer 1" xmlns="http://www.w3.org/2000/svg" width="512" height="512" viewBox="0 0 512 512">
  <rect x="-.43" y=".7" width="512.26" height="510.98" rx="164.47" ry="164.47"/>
  <path d="M480.13,265.04c.25-3.09.37-7.24.37-12.46,0-11.78-2.65-22.52-7.96-32.2-5.3-9.68-12.88-17.38-22.73-23.11-9.85-5.72-21.34-8.59-34.47-8.59s-24.84,2.87-35.1,8.59c-10.27,5.73-18.27,13.98-23.99,24.75-2.48,4.67-4.4,9.69-5.8,15.02h17.81c2.54-8.28,6.77-15.16,12.73-20.58,9.26-8.42,20.46-12.63,33.59-12.63,8.75,0,16.83,1.85,24.24,5.56,7.41,3.71,13.26,9.18,17.55,16.42,4.29,7.24,6.35,16,6.19,26.26h-89.96l-24.65.16s0,.04,0,.06h-11.16s-19.62-92.93-19.62-92.93c-1.14-5.42-5.81-9.24-11.35-9.3h-.12c-5.49,0-10.17,3.72-11.41,9.08l-43.1,186.47c-.27,1.18-.95,1.8-2.24,1.75-1.21-.02-1.95-.64-2.18-1.83l-30.04-155.14c-1.03-5.33-5.54-9.17-10.97-9.33-5.48-.21-10.16,3.41-11.5,8.67l-34.49,135.46-22.64-67.31c-.99-2.95-3.75-4.94-6.85-4.96l-98.7-.61-.09,14.56,93.51.58,21.53,64.01c2,5.96,7.61,9.82,13.85,9.57,6.28-.24,11.54-4.49,13.09-10.58l31.56-123.96,27.46,141.81c1.55,8,8.06,13.48,16.21,13.62.11,0,.22,0,.33,0,8,0,14.55-5.2,16.36-13.04l40.2-173.92,18.18,86.13c.71,3.37,3.68,5.78,7.12,5.78h0l17.04-.02c.83,11.34,3.61,21.45,8.42,30.3,5.81,10.69,13.85,18.94,24.12,24.75,10.27,5.81,21.89,8.71,34.85,8.71,16.67,0,30.52-4.25,41.54-12.75,11.03-8.5,18.22-19.49,21.59-32.96h-18.69c-2.53,9.43-7.7,16.92-15.53,22.48-7.83,5.56-17.47,8.33-28.92,8.33-8.76,0-16.84-1.89-24.24-5.68-7.41-3.79-13.38-9.38-17.93-16.79-4.49-7.32-7-16.13-7.55-26.41l114.51-.13v-1.66Z" fill="#fff"/>
</svg>